<svg width="325" height="128" viewBox="0 0 325 128" fill="none" xmlns="http://www.w3.org/2000/svg">
<path d="M7.4 102V28.5H43.4V34H13.5V61H37.9V66.5H13.5V96.5H43.4V102H7.4ZM77.7 102.8C76.0333 102.8 74.3667 102.567 72.7 102.1C71.1 101.7 69.6333 101.033 68.3 100.1C67.0333 99.1 65.9 97.9333 64.9 96.6C63.9667 95.2 63.2333 93.7333 62.7 92.2V102H56.6V28.5H62.7V59.8C63.2333 58.2667 63.9667 56.8333 64.9 55.5C65.9 54.1 67.0333 52.9333 68.3 52C69.6333 51 71.1 50.3 72.7 49.9C74.3667 49.4333 76.0333 49.2 77.7 49.2C79.3667 49.2 81 49.4333 82.6 49.9C84.2667 50.3 85.7667 51 87.1 52C88.4333 53 89.5667 54.2 90.5 55.6C91.5 57 92.2667 58.5 92.8 60.1C93.3333 61.7 93.7 63.3333 93.9 65C94.1 66.6667 94.2 68.3333 94.2 70V82C94.2 83.6667 94.1 85.3333 93.9 87C93.7 88.6667 93.3333 90.3 92.8 91.9C92.2667 93.5 91.5 95 90.5 96.4C89.5667 97.8 88.4333 99 87.1 100C85.7667 101 84.2667 101.7 82.6 102.1C81 102.567 79.3667 102.8 77.7 102.8ZM75.4 97.3C76.6667 97.3 77.9 97.1667 79.1 96.9C80.3667 96.5667 81.5 96.0667 82.5 95.4C83.5667 94.6667 84.4667 93.8 85.2 92.8C85.9333 91.7333 86.5 90.6 86.9 89.4C87.3667 88.2 87.6667 87 87.8 85.8C88 84.5333 88.1 83.2667 88.1 82V70C88.1 68.7333 88 67.5 87.8 66.3C87.6667 65.0333 87.3667 63.8 86.9 62.6C86.5 61.4 85.9333 60.3 85.2 59.3C84.4667 58.2333 83.5667 57.3667 82.5 56.7C81.5 55.9667 80.3667 55.4667 79.1 55.2C77.9 54.8667 76.6667 54.7 75.4 54.7C74.1333 54.7 72.8667 54.8667 71.6 55.2C70.4 55.4667 69.2667 55.9667 68.2 56.7C67.2 57.3667 66.3333 58.2333 65.6 59.3C64.8667 60.3 64.2667 61.4 63.8 62.6C63.4 63.8 63.1 65.0333 62.9 66.3C62.7667 67.5 62.7 68.7333 62.7 70V82C62.7 83.2667 62.7667 84.5333 62.9 85.8C63.1 87 63.4 88.2 63.8 89.4C64.2667 90.6 64.8667 91.7333 65.6 92.8C66.3333 93.8 67.2 94.6667 68.2 95.4C69.2667 96.0667 70.4 96.5667 71.6 96.9C72.8667 97.1667 74.1333 97.3 75.4 97.3ZM122.7 102.8C121.033 102.8 119.4 102.567 117.8 102.1C116.2 101.7 114.733 101 113.4 100C112.133 98.9333 111.033 97.7 110.1 96.3C109.167 94.9 108.433 93.4 107.9 91.8C107.433 90.2 107.1 88.6 106.9 87C106.7 85.3333 106.6 83.6667 106.6 82V50H112.7V82C112.7 83.2667 112.767 84.5333 112.9 85.8C113.033 87 113.3 88.2 113.7 89.4C114.167 90.5333 114.733 91.6333 115.4 92.7C116.133 93.7 117 94.5667 118 95.3C119 95.9667 120.1 96.4667 121.3 96.8C122.5 97.1333 123.733 97.3 125 97.3C126.267 97.3 127.5 97.1333 128.7 96.8C129.9 96.4667 131 95.9667 132 95.3C133 94.5667 133.833 93.7 134.5 92.7C135.233 91.6333 135.8 90.5333 136.2 89.4C136.667 88.2 136.967 87 137.1 85.8C137.233 84.5333 137.3 83.2667 137.3 82V50H143.4V94.3C143.4 94.7 143.467 95.1 143.6 95.5C143.733 95.9 143.933 96.2333 144.2 96.5C144.467 96.7667 144.8 96.9667 145.2 97.1C145.6 97.2333 146 97.3 146.4 97.3H148.5V102.8H146.4C145.2 102.8 144 102.633 142.8 102.3C141.667 102.033 140.667 101.5 139.8 100.7C138.933 99.9 138.3 98.9333 137.9 97.8C137.5 96.6667 137.3 95.5 137.3 94.3V92.3C136.767 93.8333 136.033 95.2667 135.1 96.6C134.233 97.9333 133.133 99.1 131.8 100.1C130.533 101.033 129.1 101.7 127.5 102.1C125.9 102.567 124.3 102.8 122.7 102.8ZM156.6 102V28.5H162.7V76C163.9 75.1333 165.133 74.2667 166.4 73.4C167.667 72.4667 168.9 71.5333 170.1 70.6C171.3 69.6667 172.5 68.7333 173.7 67.8C174.9 66.8 176.067 65.8 177.2 64.8C178.4 63.8 179.533 62.7667 180.6 61.7C181.733 60.6333 182.767 59.5 183.7 58.3C184.633 57.1 185.467 55.8 186.2 54.4C186.933 53 187.3 51.5333 187.3 50H193.4C193.4 51.6 193.033 53.1667 192.3 54.7C191.633 56.2333 190.8 57.6667 189.8 59C188.867 60.2667 187.833 61.5 186.7 62.7C185.567 63.9 184.4 65.0667 183.2 66.2C182.067 67.2667 180.867 68.3333 179.6 69.4C178.333 70.4667 177.067 71.5 175.8 72.5C176.8 73.5667 177.8 74.6667 178.8 75.8C179.8 76.8667 180.767 77.9667 181.7 79.1C182.633 80.2333 183.533 81.4 184.4 82.6C185.333 83.7333 186.233 84.9 187.1 86.1C187.967 87.3 188.8 88.5333 189.6 89.8C190.4 91 191.1 92.2667 191.7 93.6C192.367 94.9333 192.933 96.3 193.4 97.7C193.933 99.1 194.2 100.533 194.2 102H188.1C188.1 100.667 187.867 99.4 187.4 98.2C187 96.9333 186.5 95.7 185.9 94.5C185.367 93.3 184.733 92.1667 184 91.1C183.267 89.9667 182.5 88.8667 181.7 87.8C180.967 86.7333 180.2 85.7 179.4 84.7C178.6 83.6333 177.767 82.6 176.9 81.6C176.033 80.6 175.167 79.6333 174.3 78.7C173.433 77.7 172.533 76.7333 171.6 75.8C170.133 76.9333 168.633 78.0667 167.1 79.2C165.633 80.2667 164.167 81.3667 162.7 82.5V102H156.6ZM222.3 102.8C220.233 102.8 218.167 102.533 216.1 102C214.033 101.533 212.167 100.667 210.5 99.4C208.9 98.0667 207.7 96.4 206.9 94.4C206.167 92.4 205.8 90.3667 205.8 88.3C205.8 86.6333 206 85 206.4 83.4C206.867 81.7333 207.633 80.2333 208.7 78.9C209.767 77.5667 211 76.4667 212.4 75.6C213.867 74.6667 215.367 73.9333 216.9 73.4C218.5 72.8667 220.133 72.5333 221.8 72.4C223.467 72.2 225.133 72.1 226.8 72.1H237.3V66.8C237.3 65.7333 237.2 64.6667 237 63.6C236.8 62.4667 236.433 61.4333 235.9 60.5C235.433 59.5 234.8 58.6333 234 57.9C233.2 57.1 232.3 56.4667 231.3 56C230.3 55.5333 229.233 55.2 228.1 55C227.033 54.8 225.967 54.7 224.9 54.7C223.433 54.7 221.967 54.8333 220.5 55.1C219.1 55.3667 217.767 55.9 216.5 56.7C215.3 57.5 214.333 58.5667 213.6 59.9C212.867 61.1667 212.5 62.5 212.5 63.9V64.1H206.4V63.9C206.4 62.4333 206.633 61 207.1 59.6C207.567 58.1333 208.233 56.8 209.1 55.6C209.967 54.4 211 53.4 212.2 52.6C213.467 51.7333 214.767 51.0667 216.1 50.6C217.5 50.0667 218.933 49.7 220.4 49.5C221.933 49.3 223.433 49.2 224.9 49.2C226.5 49.2 228.1 49.3333 229.7 49.6C231.3 49.8667 232.833 50.3333 234.3 51C235.767 51.6667 237.1 52.5667 238.3 53.7C239.567 54.7667 240.567 56.0333 241.3 57.5C242.1 58.9 242.633 60.4 242.9 62C243.233 63.6 243.4 65.2 243.4 66.8V102H237.3V93.2C236.7 94.6667 235.9 96.0333 234.9 97.3C233.9 98.5667 232.733 99.6333 231.4 100.5C230.067 101.367 228.6 101.967 227 102.3C225.467 102.633 223.9 102.8 222.3 102.8ZM224.5 97.3C225.7 97.3 226.867 97.2 228 97C229.2 96.7333 230.3 96.3333 231.3 95.8C232.3 95.2667 233.2 94.5667 234 93.7C234.867 92.8333 235.533 91.8667 236 90.8C236.533 89.7333 236.867 88.6333 237 87.5C237.2 86.3 237.3 85.1333 237.3 84V77.6H226.8C225.667 77.6 224.533 77.6667 223.4 77.8C222.333 77.8667 221.233 78.0667 220.1 78.4C219.033 78.6667 217.967 79.0667 216.9 79.6C215.9 80.0667 215 80.7333 214.2 81.6C213.4 82.4 212.8 83.3333 212.4 84.4C212.067 85.4667 211.9 86.5667 211.9 87.7C211.9 88.7 212.033 89.7 212.3 90.7C212.567 91.6333 213 92.5 213.6 93.3C214.267 94.1 215.033 94.7667 215.9 95.3C216.767 95.7667 217.667 96.1667 218.6 96.5C219.6 96.7667 220.567 96.9667 221.5 97.1C222.5 97.2333 223.5 97.3 224.5 97.3Z" fill="white"/>
<path d="M261.15 64.4C260.317 64.4 259.483 64.2833 258.65 64.05C257.85 63.85 257.117 63.5 256.45 63C255.783 62.5 255.2 61.9 254.7 61.2C254.233 60.5 253.867 59.75 253.6 58.95C253.333 58.15 253.15 57.3333 253.05 56.5C252.95 55.6667 252.9 54.8333 252.9 54V48C252.9 47.1667 252.95 46.3333 253.05 45.5C253.15 44.6667 253.333 43.85 253.6 43.05C253.867 42.25 254.233 41.5 254.7 40.8C255.2 40.1 255.783 39.5 256.45 39C257.117 38.5 257.85 38.15 258.65 37.95C259.483 37.7167 260.317 37.6 261.15 37.6C261.983 37.6 262.8 37.7167 263.6 37.95C264.433 38.15 265.167 38.5 265.8 39C266.467 39.4667 267.033 40.05 267.5 40.75C268 41.4167 268.383 42.1333 268.65 42.9V27.25H271.7V60.15C271.7 60.35 271.733 60.55 271.8 60.75C271.867 60.95 271.967 61.1167 272.1 61.25C272.233 61.3833 272.4 61.4833 272.6 61.55C272.8 61.6167 273 61.65 273.2 61.65H274.25V64.4H273.2C272.6 64.4 272 64.3167 271.4 64.15C270.833 64.0167 270.333 63.75 269.9 63.35C269.467 62.95 269.15 62.4667 268.95 61.9C268.75 61.3333 268.65 60.75 268.65 60.15V59.1C268.383 59.8667 268 60.6 267.5 61.3C267.033 61.9667 266.467 62.55 265.8 63.05C265.167 63.5167 264.433 63.85 263.6 64.05C262.8 64.2833 261.983 64.4 261.15 64.4ZM262.3 61.65C262.933 61.65 263.55 61.5833 264.15 61.45C264.783 61.2833 265.35 61.0333 265.85 60.7C266.383 60.3333 266.833 59.9 267.2 59.4C267.567 58.8667 267.85 58.3 268.05 57.7C268.283 57.1 268.433 56.5 268.5 55.9C268.6 55.2667 268.65 54.6333 268.65 54V48C268.65 47.3667 268.6 46.75 268.5 46.15C268.433 45.5167 268.283 44.9 268.05 44.3C267.85 43.7 267.567 43.15 267.2 42.65C266.833 42.1167 266.383 41.6833 265.85 41.35C265.35 40.9833 264.783 40.7333 264.15 40.6C263.55 40.4333 262.933 40.35 262.3 40.35C261.667 40.35 261.033 40.4333 260.4 40.6C259.8 40.7333 259.233 40.9833 258.7 41.35C258.2 41.6833 257.767 42.1167 257.4 42.65C257.033 43.15 256.733 43.7 256.5 44.3C256.3 44.9 256.15 45.5167 256.05 46.15C255.983 46.75 255.95 47.3667 255.95 48V54C255.95 54.6333 255.983 55.2667 256.05 55.9C256.15 56.5 256.3 57.1 256.5 57.7C256.733 58.3 257.033 58.8667 257.4 59.4C257.767 59.9 258.2 60.3333 258.7 60.7C259.233 61.0333 259.8 61.2833 260.4 61.45C261.033 61.5833 261.667 61.65 262.3 61.65ZM287.5 64.4C286.6 64.4 285.7 64.3 284.8 64.1C283.933 63.9333 283.117 63.6333 282.35 63.2C281.583 62.7667 280.9 62.2 280.3 61.5C279.7 60.8 279.217 60.05 278.85 59.25C278.483 58.4167 278.233 57.5667 278.1 56.7C277.967 55.8 277.9 54.9 277.9 54V48C277.9 47.1 277.967 46.2167 278.1 45.35C278.233 44.45 278.483 43.5833 278.85 42.75C279.217 41.9167 279.7 41.1667 280.3 40.5C280.9 39.8 281.583 39.2333 282.35 38.8C283.15 38.3667 283.983 38.0667 284.85 37.9C285.75 37.7 286.65 37.6 287.55 37.6C288.317 37.6 289.083 37.65 289.85 37.75C290.65 37.85 291.417 38.0333 292.15 38.3C292.883 38.5667 293.567 38.9333 294.2 39.4C294.833 39.8333 295.367 40.3833 295.8 41.05C296.267 41.6833 296.6 42.3833 296.8 43.15C297 43.9167 297.1 44.6833 297.1 45.45C297.1 46.25 296.983 47.0333 296.75 47.8C296.55 48.5667 296.2 49.2667 295.7 49.9C295.233 50.5 294.667 51.0167 294 51.45C293.333 51.85 292.617 52.1667 291.85 52.4C291.117 52.6333 290.35 52.8 289.55 52.9C288.783 53 288.017 53.05 287.25 53.05H280.95V54C280.95 54.6333 280.983 55.2667 281.05 55.9C281.15 56.5333 281.317 57.15 281.55 57.75C281.783 58.35 282.083 58.9 282.45 59.4C282.85 59.9 283.317 60.3333 283.85 60.7C284.383 61.0333 284.967 61.2833 285.6 61.45C286.233 61.5833 286.867 61.65 287.5 61.65C288.233 61.65 288.967 61.5833 289.7 61.45C290.467 61.2833 291.167 61.0167 291.8 60.65C292.433 60.25 292.95 59.7333 293.35 59.1C293.75 58.4333 293.95 57.7167 293.95 56.95H297C296.967 57.7167 296.833 58.4667 296.6 59.2C296.367 59.9 296.017 60.55 295.55 61.15C295.117 61.75 294.583 62.2667 293.95 62.7C293.317 63.1333 292.65 63.4833 291.95 63.75C291.25 63.9833 290.517 64.15 289.75 64.25C289.017 64.35 288.267 64.4 287.5 64.4ZM287.25 50.25C287.783 50.25 288.3 50.2333 288.8 50.2C289.333 50.1333 289.85 50.0333 290.35 49.9C290.85 49.7667 291.333 49.5667 291.8 49.3C292.267 49.0333 292.683 48.7167 293.05 48.35C293.417 47.95 293.667 47.5 293.8 47C293.967 46.4667 294.05 45.95 294.05 45.45C294.05 44.65 293.867 43.9 293.5 43.2C293.167 42.4667 292.667 41.8833 292 41.45C291.367 41.0167 290.65 40.7333 289.85 40.6C289.083 40.4333 288.317 40.35 287.55 40.35C286.917 40.35 286.283 40.4333 285.65 40.6C285.017 40.7333 284.433 40.9667 283.9 41.3C283.367 41.6333 282.9 42.0667 282.5 42.6C282.1 43.1 281.783 43.65 281.55 44.25C281.317 44.85 281.15 45.4667 281.05 46.1C280.983 46.7333 280.95 47.3667 280.95 48V50.25H287.25ZM314.25 64H310.75C310.183 62.7667 309.617 61.5167 309.05 60.25C308.517 58.9833 308 57.7167 307.5 56.45C307 55.15 306.517 53.8667 306.05 52.6C305.583 51.3 305.15 50 304.75 48.7C304.383 47.3667 304.05 46.0333 303.75 44.7C303.45 43.3333 303.3 41.9667 303.3 40.6V38H306.35V40.6C306.35 41.8 306.467 43 306.7 44.2C306.933 45.3667 307.2 46.5333 307.5 47.7C307.833 48.8667 308.183 50.0333 308.55 51.2C308.95 52.3333 309.35 53.4667 309.75 54.6C310.183 55.7 310.633 56.8167 311.1 57.95C311.567 59.05 312.033 60.15 312.5 61.25C312.967 60.15 313.433 59.05 313.9 57.95C314.367 56.8167 314.8 55.7 315.2 54.6C315.633 53.4667 316.033 52.3333 316.4 51.2C316.8 50.0333 317.15 48.8667 317.45 47.7C317.783 46.5333 318.067 45.3667 318.3 44.2C318.533 43 318.65 41.8 318.65 40.6V38H321.7V40.6C321.7 41.9667 321.55 43.3333 321.25 44.7C320.95 46.0333 320.6 47.3667 320.2 48.7C319.833 50 319.417 51.3 318.95 52.6C318.483 53.8667 318 55.15 317.5 56.45C317 57.7167 316.467 58.9833 315.9 60.25C315.367 61.5167 314.817 62.7667 314.25 64Z" fill="white"/>
</svg>
